<mxfile host="app.diagrams.net" modified="2024-01-18T11:29:12.895Z" agent="Mozilla/5.0 (Macintosh; Intel Mac OS X 10_15_7) AppleWebKit/537.36 (KHTML, like Gecko) Chrome/120.0.0.0 Safari/537.36" etag="Je0asdhlMChCp_s9tYuX" version="22.1.21" type="device">
  <diagram id="R2lEEEUBdFMjLlhIrx00" name="Page-1">
    <mxGraphModel dx="967" dy="580" grid="1" gridSize="10" guides="1" tooltips="1" connect="1" arrows="1" fold="1" page="1" pageScale="1" pageWidth="850" pageHeight="1100" math="0" shadow="0" extFonts="Permanent Marker^https://fonts.googleapis.com/css?family=Permanent+Marker">
      <root>
        <mxCell id="0" />
        <mxCell id="1" parent="0" />
        <mxCell id="h6ufwhLcxQfJ_wczSMWB-1" value="Company" style="rounded=0;whiteSpace=wrap;html=1;" vertex="1" parent="1">
          <mxGeometry x="160" y="230" width="120" height="60" as="geometry" />
        </mxCell>
        <mxCell id="h6ufwhLcxQfJ_wczSMWB-3" value="Cargo" style="rounded=0;whiteSpace=wrap;html=1;" vertex="1" parent="1">
          <mxGeometry x="480" y="474" width="120" height="60" as="geometry" />
        </mxCell>
        <mxCell id="h6ufwhLcxQfJ_wczSMWB-4" value="Aufträge" style="rounded=0;whiteSpace=wrap;html=1;" vertex="1" parent="1">
          <mxGeometry x="160" y="480" width="120" height="60" as="geometry" />
        </mxCell>
        <mxCell id="h6ufwhLcxQfJ_wczSMWB-5" value="Häfen" style="rounded=0;whiteSpace=wrap;html=1;" vertex="1" parent="1">
          <mxGeometry x="480" y="10" width="120" height="60" as="geometry" />
        </mxCell>
        <mxCell id="h6ufwhLcxQfJ_wczSMWB-6" value="Schiffe" style="rounded=0;whiteSpace=wrap;html=1;" vertex="1" parent="1">
          <mxGeometry x="480" y="230" width="120" height="60" as="geometry" />
        </mxCell>
        <mxCell id="h6ufwhLcxQfJ_wczSMWB-11" value="besitzt" style="rhombus;whiteSpace=wrap;html=1;" vertex="1" parent="1">
          <mxGeometry x="330" y="220" width="80" height="80" as="geometry" />
        </mxCell>
        <mxCell id="h6ufwhLcxQfJ_wczSMWB-12" value="" style="endArrow=none;html=1;rounded=0;exitX=1;exitY=0.5;exitDx=0;exitDy=0;entryX=0;entryY=0.5;entryDx=0;entryDy=0;" edge="1" parent="1" source="h6ufwhLcxQfJ_wczSMWB-1" target="h6ufwhLcxQfJ_wczSMWB-11">
          <mxGeometry width="50" height="50" relative="1" as="geometry">
            <mxPoint x="360" y="350" as="sourcePoint" />
            <mxPoint x="410" y="300" as="targetPoint" />
          </mxGeometry>
        </mxCell>
        <mxCell id="h6ufwhLcxQfJ_wczSMWB-13" value="" style="endArrow=none;html=1;rounded=0;exitX=1;exitY=0.5;exitDx=0;exitDy=0;entryX=0;entryY=0.5;entryDx=0;entryDy=0;" edge="1" parent="1" target="h6ufwhLcxQfJ_wczSMWB-6">
          <mxGeometry width="50" height="50" relative="1" as="geometry">
            <mxPoint x="410" y="259.78" as="sourcePoint" />
            <mxPoint x="460" y="259.78" as="targetPoint" />
          </mxGeometry>
        </mxCell>
        <mxCell id="h6ufwhLcxQfJ_wczSMWB-14" value="1" style="text;html=1;align=center;verticalAlign=middle;resizable=0;points=[];autosize=1;strokeColor=none;fillColor=none;" vertex="1" parent="1">
          <mxGeometry x="275" y="238" width="30" height="30" as="geometry" />
        </mxCell>
        <mxCell id="h6ufwhLcxQfJ_wczSMWB-15" value="n" style="text;html=1;align=center;verticalAlign=middle;resizable=0;points=[];autosize=1;strokeColor=none;fillColor=none;" vertex="1" parent="1">
          <mxGeometry x="445" y="238" width="30" height="30" as="geometry" />
        </mxCell>
        <mxCell id="h6ufwhLcxQfJ_wczSMWB-16" value="trägt auf" style="rhombus;whiteSpace=wrap;html=1;" vertex="1" parent="1">
          <mxGeometry x="180" y="340" width="80" height="80" as="geometry" />
        </mxCell>
        <mxCell id="h6ufwhLcxQfJ_wczSMWB-17" value="" style="endArrow=none;html=1;rounded=0;exitX=0.5;exitY=0;exitDx=0;exitDy=0;entryX=0.5;entryY=1;entryDx=0;entryDy=0;" edge="1" parent="1" source="h6ufwhLcxQfJ_wczSMWB-16" target="h6ufwhLcxQfJ_wczSMWB-1">
          <mxGeometry width="50" height="50" relative="1" as="geometry">
            <mxPoint x="380" y="320" as="sourcePoint" />
            <mxPoint x="430" y="270" as="targetPoint" />
          </mxGeometry>
        </mxCell>
        <mxCell id="h6ufwhLcxQfJ_wczSMWB-18" value="1" style="text;html=1;align=center;verticalAlign=middle;resizable=0;points=[];autosize=1;strokeColor=none;fillColor=none;" vertex="1" parent="1">
          <mxGeometry x="215" y="288" width="30" height="30" as="geometry" />
        </mxCell>
        <mxCell id="h6ufwhLcxQfJ_wczSMWB-20" value="n" style="text;html=1;align=center;verticalAlign=middle;resizable=0;points=[];autosize=1;strokeColor=none;fillColor=none;" vertex="1" parent="1">
          <mxGeometry x="213" y="457" width="30" height="30" as="geometry" />
        </mxCell>
        <mxCell id="h6ufwhLcxQfJ_wczSMWB-21" value="" style="endArrow=none;html=1;rounded=0;exitX=0.5;exitY=0;exitDx=0;exitDy=0;entryX=0.5;entryY=1;entryDx=0;entryDy=0;" edge="1" parent="1" source="h6ufwhLcxQfJ_wczSMWB-4">
          <mxGeometry width="50" height="50" relative="1" as="geometry">
            <mxPoint x="219.82" y="470" as="sourcePoint" />
            <mxPoint x="219.82" y="420" as="targetPoint" />
          </mxGeometry>
        </mxCell>
        <mxCell id="h6ufwhLcxQfJ_wczSMWB-22" value="besucht" style="rhombus;whiteSpace=wrap;html=1;" vertex="1" parent="1">
          <mxGeometry x="500" y="110" width="80" height="80" as="geometry" />
        </mxCell>
        <mxCell id="h6ufwhLcxQfJ_wczSMWB-23" value="" style="endArrow=none;html=1;rounded=0;exitX=0.5;exitY=0;exitDx=0;exitDy=0;entryX=0.5;entryY=1;entryDx=0;entryDy=0;" edge="1" parent="1" source="h6ufwhLcxQfJ_wczSMWB-6" target="h6ufwhLcxQfJ_wczSMWB-22">
          <mxGeometry width="50" height="50" relative="1" as="geometry">
            <mxPoint x="510" y="210" as="sourcePoint" />
            <mxPoint x="560" y="160" as="targetPoint" />
          </mxGeometry>
        </mxCell>
        <mxCell id="h6ufwhLcxQfJ_wczSMWB-24" value="" style="endArrow=none;html=1;rounded=0;exitX=0.5;exitY=0;exitDx=0;exitDy=0;entryX=0.5;entryY=1;entryDx=0;entryDy=0;" edge="1" parent="1">
          <mxGeometry width="50" height="50" relative="1" as="geometry">
            <mxPoint x="539.79" y="110" as="sourcePoint" />
            <mxPoint x="539.79" y="70" as="targetPoint" />
          </mxGeometry>
        </mxCell>
        <mxCell id="h6ufwhLcxQfJ_wczSMWB-25" value="1" style="text;html=1;align=center;verticalAlign=middle;resizable=0;points=[];autosize=1;strokeColor=none;fillColor=none;" vertex="1" parent="1">
          <mxGeometry x="533" y="64" width="30" height="30" as="geometry" />
        </mxCell>
        <mxCell id="h6ufwhLcxQfJ_wczSMWB-26" value="1" style="text;html=1;align=center;verticalAlign=middle;resizable=0;points=[];autosize=1;strokeColor=none;fillColor=none;" vertex="1" parent="1">
          <mxGeometry x="534" y="205" width="30" height="30" as="geometry" />
        </mxCell>
        <mxCell id="h6ufwhLcxQfJ_wczSMWB-27" value="liefert" style="rhombus;whiteSpace=wrap;html=1;" vertex="1" parent="1">
          <mxGeometry x="500" y="340" width="80" height="80" as="geometry" />
        </mxCell>
        <mxCell id="h6ufwhLcxQfJ_wczSMWB-28" value="" style="endArrow=none;html=1;rounded=0;entryX=0.5;entryY=1;entryDx=0;entryDy=0;exitX=0.5;exitY=0;exitDx=0;exitDy=0;" edge="1" parent="1" source="h6ufwhLcxQfJ_wczSMWB-3" target="h6ufwhLcxQfJ_wczSMWB-27">
          <mxGeometry width="50" height="50" relative="1" as="geometry">
            <mxPoint x="460" y="470" as="sourcePoint" />
            <mxPoint x="510" y="420" as="targetPoint" />
          </mxGeometry>
        </mxCell>
        <mxCell id="h6ufwhLcxQfJ_wczSMWB-29" value="" style="endArrow=none;html=1;rounded=0;entryX=0.5;entryY=1;entryDx=0;entryDy=0;" edge="1" parent="1" target="h6ufwhLcxQfJ_wczSMWB-6">
          <mxGeometry width="50" height="50" relative="1" as="geometry">
            <mxPoint x="540" y="340" as="sourcePoint" />
            <mxPoint x="539.62" y="300" as="targetPoint" />
          </mxGeometry>
        </mxCell>
        <mxCell id="h6ufwhLcxQfJ_wczSMWB-30" value="1" style="text;html=1;align=center;verticalAlign=middle;resizable=0;points=[];autosize=1;strokeColor=none;fillColor=none;" vertex="1" parent="1">
          <mxGeometry x="535" y="286" width="30" height="30" as="geometry" />
        </mxCell>
        <mxCell id="h6ufwhLcxQfJ_wczSMWB-31" value="1" style="text;html=1;align=center;verticalAlign=middle;resizable=0;points=[];autosize=1;strokeColor=none;fillColor=none;" vertex="1" parent="1">
          <mxGeometry x="535" y="444" width="30" height="30" as="geometry" />
        </mxCell>
      </root>
    </mxGraphModel>
  </diagram>
</mxfile>
